<svg xmlns="http://www.w3.org/2000/svg" xmlns:xlink="http://www.w3.org/1999/xlink" width="40" zoomAndPan="magnify" viewBox="0 0 30 30.000001" height="40" preserveAspectRatio="xMidYMid meet" version="1.0"><defs><clipPath id="d4fd2278e6"><path d="M 8.03125 6.53125 L 23 6.53125 L 23 21.773438 L 8.03125 21.773438 Z M 8.03125 6.53125 " clip-rule="nonzero"/></clipPath><clipPath id="9688c07827"><path d="M 7.015625 6.53125 L 22.984375 6.53125 L 22.984375 22.5 L 7.015625 22.5 Z M 7.015625 6.53125 " clip-rule="nonzero"/></clipPath></defs><g clip-path="url(#d4fd2278e6)"><path fill="#f1bf0a" d="M 20.453125 7.335938 C 21.601562 8.085938 22.296875 9.523438 22.621094 10.9375 C 22.949219 12.335938 22.902344 13.710938 22.683594 15.039062 C 22.476562 16.378906 22.105469 17.671875 21.355469 18.792969 C 20.605469 19.914062 19.492188 20.863281 18.171875 21.359375 C 16.84375 21.867188 15.324219 21.921875 14.023438 21.441406 C 12.730469 20.953125 11.652344 19.933594 10.667969 18.8125 C 9.683594 17.699219 8.777344 16.496094 8.425781 15.113281 C 8.0625 13.730469 8.246094 12.164062 8.878906 10.816406 C 9.511719 9.472656 10.597656 8.339844 11.878906 7.652344 C 13.15625 6.964844 14.636719 6.722656 16.175781 6.632812 C 17.710938 6.53125 19.304688 6.59375 20.453125 7.335938 Z M 20.453125 7.335938 " fill-opacity="1" fill-rule="nonzero"/></g><g clip-path="url(#9688c07827)"><path fill="#52554f" d="M 14.996094 9.476562 C 16.386719 9.476562 17.648438 10.042969 18.558594 10.953125 C 19.46875 11.863281 20.03125 13.125 20.03125 14.511719 C 20.03125 15.902344 19.46875 17.164062 18.558594 18.074219 C 17.648438 18.984375 16.386719 19.546875 14.996094 19.546875 C 13.605469 19.546875 12.347656 18.984375 11.4375 18.074219 C 10.527344 17.164062 9.960938 15.902344 9.960938 14.511719 C 9.960938 13.121094 10.527344 11.863281 11.4375 10.953125 C 12.347656 10.042969 13.609375 9.476562 14.996094 9.476562 Z M 10.457031 7.398438 C 10.355469 7.21875 10.414062 6.992188 10.59375 6.886719 C 10.773438 6.785156 11 6.84375 11.105469 7.023438 L 11.929688 8.449219 C 12.03125 8.628906 11.972656 8.859375 11.792969 8.960938 C 11.613281 9.066406 11.386719 9.003906 11.28125 8.824219 Z M 7.507812 10.621094 C 7.332031 10.515625 7.269531 10.289062 7.371094 10.113281 C 7.476562 9.933594 7.703125 9.871094 7.882812 9.972656 L 9.308594 10.800781 C 9.488281 10.902344 9.546875 11.128906 9.445312 11.308594 C 9.34375 11.484375 9.117188 11.546875 8.9375 11.445312 Z M 7.390625 14.886719 C 7.183594 14.886719 7.015625 14.71875 7.015625 14.511719 C 7.015625 14.304688 7.183594 14.136719 7.390625 14.136719 L 8.214844 14.136719 C 8.421875 14.136719 8.589844 14.304688 8.589844 14.511719 C 8.589844 14.71875 8.421875 14.886719 8.214844 14.886719 Z M 7.882812 19.050781 C 7.703125 19.15625 7.476562 19.09375 7.371094 18.914062 C 7.269531 18.738281 7.332031 18.507812 7.507812 18.40625 L 8.9375 17.582031 C 9.117188 17.480469 9.34375 17.542969 9.445312 17.71875 C 9.546875 17.898438 9.488281 18.125 9.308594 18.230469 L 7.882812 19.054688 Z M 11.105469 22.003906 C 11 22.179688 10.773438 22.242188 10.59375 22.136719 C 10.417969 22.035156 10.355469 21.804688 10.460938 21.628906 L 11.285156 20.199219 C 11.386719 20.023438 11.617188 19.960938 11.792969 20.066406 C 11.972656 20.167969 12.03125 20.398438 11.929688 20.574219 Z M 15.371094 22.121094 C 15.371094 22.328125 15.203125 22.496094 14.996094 22.496094 C 14.792969 22.496094 14.625 22.328125 14.625 22.121094 L 14.625 21.296875 C 14.625 21.089844 14.792969 20.921875 14.996094 20.921875 C 15.203125 20.921875 15.371094 21.089844 15.371094 21.296875 Z M 19.539062 21.628906 C 19.640625 21.808594 19.578125 22.035156 19.398438 22.136719 C 19.222656 22.242188 18.996094 22.179688 18.890625 22 L 18.066406 20.574219 C 17.964844 20.394531 18.027344 20.167969 18.203125 20.066406 C 18.382812 19.960938 18.609375 20.023438 18.714844 20.203125 Z M 22.484375 18.40625 C 22.664062 18.507812 22.726562 18.738281 22.621094 18.914062 C 22.519531 19.09375 22.292969 19.15625 22.113281 19.050781 L 20.6875 18.226562 C 20.507812 18.125 20.445312 17.898438 20.550781 17.71875 C 20.652344 17.539062 20.878906 17.480469 21.058594 17.582031 Z M 22.605469 14.136719 C 22.8125 14.136719 22.980469 14.304688 22.980469 14.511719 C 22.980469 14.71875 22.8125 14.886719 22.605469 14.886719 L 21.78125 14.886719 C 21.574219 14.886719 21.40625 14.71875 21.40625 14.511719 C 21.40625 14.304688 21.574219 14.136719 21.78125 14.136719 Z M 22.113281 9.972656 C 22.292969 9.871094 22.519531 9.933594 22.621094 10.109375 C 22.726562 10.289062 22.664062 10.515625 22.484375 10.621094 L 21.058594 11.441406 C 20.878906 11.546875 20.652344 11.484375 20.550781 11.304688 C 20.445312 11.128906 20.507812 10.898438 20.6875 10.796875 Z M 18.890625 7.023438 C 18.992188 6.847656 19.222656 6.785156 19.398438 6.886719 C 19.578125 6.992188 19.640625 7.21875 19.535156 7.398438 L 18.710938 8.824219 C 18.609375 9.003906 18.382812 9.0625 18.203125 8.960938 C 18.027344 8.859375 17.964844 8.628906 18.066406 8.453125 Z M 14.625 6.90625 C 14.625 6.699219 14.792969 6.53125 14.996094 6.53125 C 15.203125 6.53125 15.371094 6.699219 15.371094 6.90625 L 15.371094 7.730469 C 15.371094 7.9375 15.203125 8.105469 14.996094 8.105469 C 14.792969 8.105469 14.625 7.9375 14.625 7.730469 Z M 16.953125 14.511719 C 16.953125 14.304688 17.121094 14.136719 17.328125 14.136719 C 17.535156 14.136719 17.703125 14.304688 17.703125 14.511719 C 17.703125 15.261719 17.402344 15.9375 16.910156 16.425781 C 16.421875 16.914062 15.746094 17.21875 14.996094 17.21875 C 14.792969 17.21875 14.625 17.050781 14.625 16.84375 C 14.625 16.636719 14.792969 16.46875 14.996094 16.46875 C 15.539062 16.46875 16.027344 16.25 16.382812 15.894531 C 16.734375 15.542969 16.953125 15.054688 16.953125 14.511719 Z M 16.953125 14.511719 " fill-opacity="1" fill-rule="evenodd"/></g></svg>