<svg xmlns="http://www.w3.org/2000/svg" xmlns:xlink="http://www.w3.org/1999/xlink" width="40" zoomAndPan="magnify" viewBox="0 0 30 30.000001" height="40" preserveAspectRatio="xMidYMid meet" version="1.0"><defs><clipPath id="cd86bee75a"><path d="M 16.453125 14.515625 L 25 14.515625 L 25 23.226562 L 16.453125 23.226562 Z M 16.453125 14.515625 " clip-rule="nonzero"/></clipPath><clipPath id="bf72aa7801"><path d="M 6.71875 6.292969 L 18.332031 6.292969 L 18.332031 18.628906 L 6.71875 18.628906 Z M 6.71875 6.292969 " clip-rule="nonzero"/></clipPath><clipPath id="dc6831503c"><path d="M 6.71875 6.292969 L 23.410156 6.292969 L 23.410156 22.984375 L 6.71875 22.984375 Z M 6.71875 6.292969 " clip-rule="nonzero"/></clipPath></defs><g clip-path="url(#cd86bee75a)"><path fill="#4bccff" d="M 23.386719 14.964844 C 24.027344 15.386719 24.417969 16.1875 24.601562 16.976562 C 24.78125 17.757812 24.757812 18.527344 24.636719 19.269531 C 24.519531 20.015625 24.3125 20.738281 23.894531 21.363281 C 23.472656 21.992188 22.851562 22.519531 22.113281 22.800781 C 21.371094 23.082031 20.523438 23.113281 19.796875 22.84375 C 19.074219 22.570312 18.472656 22 17.921875 21.375 C 17.371094 20.753906 16.867188 20.082031 16.671875 19.308594 C 16.46875 18.535156 16.570312 17.664062 16.921875 16.910156 C 17.277344 16.15625 17.882812 15.527344 18.601562 15.140625 C 19.3125 14.757812 20.140625 14.621094 21 14.570312 C 21.855469 14.515625 22.746094 14.550781 23.386719 14.964844 Z M 23.386719 14.964844 " fill-opacity="1" fill-rule="nonzero"/></g><g clip-path="url(#bf72aa7801)"><path fill="#4bccff" d="M 16.445312 6.921875 C 17.34375 7.511719 17.886719 8.636719 18.144531 9.742188 C 18.398438 10.839844 18.363281 11.914062 18.191406 12.957031 C 18.03125 14.003906 17.738281 15.019531 17.152344 15.898438 C 16.5625 16.773438 15.691406 17.519531 14.660156 17.90625 C 13.617188 18.304688 12.425781 18.347656 11.40625 17.972656 C 10.394531 17.589844 9.550781 16.789062 8.78125 15.910156 C 8.007812 15.039062 7.300781 14.097656 7.023438 13.015625 C 6.738281 11.929688 6.882812 10.703125 7.378906 9.648438 C 7.875 8.59375 8.722656 7.707031 9.730469 7.171875 C 10.726562 6.632812 11.890625 6.441406 13.09375 6.371094 C 14.296875 6.292969 15.542969 6.339844 16.445312 6.921875 Z M 16.445312 6.921875 " fill-opacity="1" fill-rule="nonzero"/></g><g clip-path="url(#dc6831503c)"><path fill="#52554f" d="M 14.792969 6.390625 C 14.847656 6.359375 14.894531 6.347656 14.949219 6.324219 C 15.328125 6.292969 15.234375 6.796875 15.234375 7.03125 L 15.234375 8.140625 C 15.484375 7.964844 16.277344 7.171875 16.496094 7.148438 C 16.726562 7.121094 16.832031 7.390625 16.695312 7.554688 C 16.367188 7.949219 15.648438 8.382812 15.234375 8.816406 L 15.234375 10.417969 C 15.347656 10.28125 15.851562 9.613281 16.078125 9.800781 C 16.492188 10.132812 15.488281 10.75 15.246094 11.101562 L 15.234375 11.117188 L 15.234375 13.078125 C 15.503906 13.125 15.609375 13.1875 15.851562 13.328125 C 16.371094 12.796875 16.925781 12.269531 17.441406 11.738281 C 17.414062 11.570312 17.289062 10.632812 17.378906 10.554688 C 17.898438 10.121094 17.859375 11.0625 17.882812 11.285156 C 18.191406 10.976562 18.640625 10.496094 18.984375 10.226562 C 18.960938 10.066406 18.90625 9.890625 18.863281 9.734375 L 18.644531 8.949219 C 18.609375 8.8125 18.566406 8.671875 18.546875 8.527344 C 18.511719 8.25 18.902344 8.152344 19 8.414062 C 19.171875 8.859375 19.25 9.34375 19.394531 9.800781 C 19.707031 9.472656 20.035156 9.15625 20.363281 8.847656 C 20.578125 8.644531 20.882812 8.929688 20.734375 9.15625 C 20.523438 9.464844 20.042969 9.8125 19.777344 10.140625 L 19.761719 10.15625 C 19.976562 10.203125 21.132812 10.429688 21.257812 10.578125 C 21.390625 10.730469 21.257812 10.984375 21.0625 10.964844 C 20.632812 10.914062 19.796875 10.679688 19.359375 10.550781 C 19.078125 10.738281 18.476562 11.394531 18.230469 11.652344 C 18.410156 11.679688 19.339844 11.648438 18.984375 12.101562 C 18.859375 12.261719 17.988281 12.125 17.746094 12.125 C 17.21875 12.636719 16.710938 13.175781 16.175781 13.683594 C 16.324219 13.898438 16.375 14.035156 16.441406 14.28125 L 18.460938 14.28125 C 18.683594 14.03125 19.109375 13.511719 19.363281 13.328125 C 19.5 13.226562 19.75 13.324219 19.757812 13.5 C 19.761719 13.695312 19.273438 14.121094 19.136719 14.28125 L 20.71875 14.28125 C 21.144531 13.828125 21.53125 13.308594 21.957031 12.859375 C 22.042969 12.769531 22.191406 12.765625 22.28125 12.847656 C 22.546875 13.097656 22.132812 13.367188 21.996094 13.5625 C 21.792969 13.8125 21.578125 14.046875 21.367188 14.28125 C 21.882812 14.273438 22.4375 14.277344 22.953125 14.285156 C 23.207031 14.292969 23.269531 14.746094 22.953125 14.769531 C 22.777344 14.785156 22.601562 14.777344 22.421875 14.777344 L 21.363281 14.777344 C 21.519531 15.046875 22.03125 15.578125 22.253906 15.824219 C 22.574219 16.175781 22.132812 16.402344 21.984375 16.25 C 21.652344 15.90625 20.980469 15.179688 20.714844 14.78125 L 19.136719 14.78125 C 19.261719 14.996094 19.523438 15.203125 19.683594 15.40625 C 19.917969 15.660156 19.542969 15.945312 19.316406 15.722656 C 19.113281 15.523438 18.597656 15.007812 18.457031 14.78125 L 16.4375 14.78125 C 16.382812 15.054688 16.3125 15.15625 16.171875 15.390625 C 16.359375 15.617188 17.628906 16.878906 17.742188 16.917969 C 18.097656 16.917969 19.03125 16.707031 19.09375 17.121094 C 19.152344 17.457031 18.347656 17.394531 18.167969 17.398438 C 18.503906 17.792969 18.964844 18.132812 19.269531 18.546875 C 19.546875 18.398438 20.746094 18.191406 21.074219 18.144531 C 21.296875 18.113281 21.433594 18.546875 21.128906 18.625 C 20.703125 18.738281 20.121094 18.863281 19.695312 18.925781 C 20.003906 19.265625 20.371094 19.5625 20.667969 19.910156 C 20.78125 20.035156 20.648438 20.289062 20.464844 20.289062 C 20.285156 20.285156 19.523438 19.449219 19.355469 19.296875 C 19.246094 19.707031 19.179688 20.128906 19.089844 20.546875 C 18.972656 21.078125 18.550781 20.820312 18.574219 20.609375 C 18.597656 20.398438 18.65625 20.164062 18.703125 19.953125 L 18.929688 18.878906 C 18.605469 18.507812 18.179688 18.136719 17.835938 17.78125 C 17.835938 17.988281 17.925781 18.960938 17.425781 18.59375 C 17.277344 18.488281 17.359375 17.476562 17.347656 17.273438 C 16.882812 16.722656 16.285156 16.269531 15.847656 15.742188 C 15.589844 15.875 15.507812 15.914062 15.230469 16.003906 L 15.230469 18.023438 C 15.429688 18.175781 16.039062 18.703125 16.179688 18.878906 C 16.304688 19.027344 16.1875 19.277344 15.996094 19.277344 C 15.832031 19.277344 15.363281 18.8125 15.230469 18.6875 L 15.230469 20.25 C 15.695312 20.597656 16.199219 21.050781 16.644531 21.433594 C 16.945312 21.691406 16.632812 21.992188 16.429688 21.875 C 16.269531 21.773438 16.125 21.636719 15.980469 21.515625 L 15.230469 20.890625 C 15.230469 21.324219 15.40625 22.527344 15.03125 22.707031 C 14.613281 22.734375 14.726562 22.210938 14.726562 21.914062 L 14.726562 20.890625 L 13.972656 21.558594 C 13.839844 21.671875 13.71875 21.789062 13.574219 21.886719 C 13.320312 22.058594 13.078125 21.707031 13.238281 21.550781 C 13.707031 21.09375 14.257812 20.664062 14.726562 20.203125 L 14.726562 18.683594 C 14.554688 18.820312 14.179688 19.242188 13.984375 19.261719 C 13.777344 19.28125 13.652344 19.039062 13.769531 18.875 C 13.964844 18.605469 14.453125 18.277344 14.710938 17.992188 L 14.726562 17.976562 L 14.726562 16.003906 C 14.460938 15.953125 14.328125 15.886719 14.101562 15.742188 C 13.609375 16.261719 13.089844 16.746094 12.605469 17.273438 C 12.59375 17.71875 12.84375 18.5 12.390625 18.625 C 12.027344 18.535156 12.125 18.054688 12.132812 17.738281 C 11.859375 17.960938 11.199219 18.613281 10.988281 18.878906 C 11.050781 19.414062 11.265625 19.980469 11.375 20.519531 C 11.410156 20.691406 11.226562 20.828125 11.0625 20.785156 C 10.824219 20.71875 10.652344 19.554688 10.574219 19.296875 C 10.3125 19.515625 9.824219 20.125 9.585938 20.265625 C 9.421875 20.355469 9.210938 20.21875 9.222656 20.035156 C 9.230469 19.878906 9.46875 19.695312 9.578125 19.585938 L 10.195312 18.96875 C 9.792969 18.878906 9.394531 18.785156 8.996094 18.683594 C 8.4375 18.539062 8.722656 18.125 8.941406 18.167969 C 9.484375 18.277344 10.03125 18.429688 10.574219 18.550781 C 10.800781 18.390625 11.542969 17.640625 11.738281 17.398438 C 10.597656 17.484375 10.949219 16.914062 11.144531 16.902344 C 11.507812 16.886719 11.863281 16.945312 12.222656 16.921875 C 12.691406 16.546875 13.316406 15.863281 13.765625 15.394531 C 13.621094 15.183594 13.550781 15.03125 13.515625 14.78125 C 13.316406 14.773438 13.0625 14.78125 12.855469 14.78125 L 11.566406 14.78125 C 11.351562 14.945312 10.652344 15.78125 10.476562 15.808594 C 10.347656 15.832031 10.1875 15.71875 10.183594 15.582031 C 10.175781 15.382812 10.707031 14.957031 10.863281 14.78125 L 9.332031 14.78125 C 9.234375 14.90625 9.0625 15.082031 8.953125 15.199219 L 8.308594 15.898438 C 8.15625 16.058594 8.0625 16.257812 7.835938 16.3125 C 7.40625 16.199219 7.617188 15.910156 7.824219 15.707031 C 8.121094 15.414062 8.371094 15.070312 8.675781 14.78125 L 7.570312 14.78125 C 7.386719 14.78125 7.175781 14.792969 6.996094 14.773438 C 6.722656 14.75 6.730469 14.324219 7.015625 14.296875 C 7.207031 14.277344 7.390625 14.28125 7.582031 14.28125 L 8.621094 14.28125 C 8.441406 14.082031 7.601562 13.222656 7.582031 13.0625 C 7.550781 12.832031 7.792969 12.703125 7.972656 12.832031 C 8.097656 12.925781 8.207031 13.070312 8.3125 13.191406 L 8.867188 13.804688 C 9.015625 13.96875 9.15625 14.136719 9.328125 14.28125 L 10.859375 14.28125 C 10.714844 14.148438 10.222656 13.691406 10.1875 13.527344 C 10.148438 13.34375 10.363281 13.175781 10.53125 13.273438 C 10.824219 13.445312 11.226562 14.019531 11.566406 14.28125 L 13.515625 14.28125 C 13.554688 14.03125 13.613281 13.882812 13.765625 13.683594 L 12.726562 12.644531 C 12.589844 12.507812 12.324219 12.265625 12.222656 12.125 C 11.871094 12.117188 10.933594 12.351562 10.882812 11.960938 C 10.835938 11.597656 11.460938 11.691406 11.714844 11.65625 L 11.734375 11.652344 C 11.363281 11.339844 11.019531 10.921875 10.632812 10.589844 C 10.5 10.601562 10.3125 10.652344 10.175781 10.679688 L 9.378906 10.863281 C 9.21875 10.898438 9.03125 10.953125 8.867188 10.960938 C 8.597656 10.972656 8.554688 10.5625 8.789062 10.496094 C 9.257812 10.359375 9.757812 10.269531 10.234375 10.15625 C 10.003906 9.941406 8.722656 8.964844 9.453125 8.773438 C 9.6875 8.839844 10.347656 9.601562 10.570312 9.800781 C 10.664062 9.355469 10.78125 8.898438 10.90625 8.460938 C 10.984375 8.179688 11.300781 8.199219 11.402344 8.480469 C 11.273438 9.0625 11.085938 9.636719 10.984375 10.226562 C 11.324219 10.5625 11.722656 10.976562 12.074219 11.285156 C 12.015625 10.101562 12.578125 10.488281 12.578125 10.660156 C 12.578125 11.015625 12.535156 11.382812 12.503906 11.738281 C 12.925781 12.0625 13.703125 12.917969 14.101562 13.324219 C 14.328125 13.171875 14.453125 13.121094 14.722656 13.074219 L 14.722656 11.113281 C 14.46875 10.835938 13.539062 10.171875 13.789062 9.847656 C 14.015625 9.550781 14.539062 10.214844 14.722656 10.417969 L 14.722656 8.816406 C 14.433594 8.542969 14.117188 8.304688 13.820312 8.042969 C 13.621094 7.863281 13.03125 7.539062 13.269531 7.234375 C 13.460938 6.984375 13.789062 7.363281 13.9375 7.488281 L 14.726562 8.140625 L 14.726562 7.101562 C 14.726562 6.902344 14.695312 6.550781 14.792969 6.390625 Z M 14.933594 13.539062 C 14.386719 13.558594 13.960938 14.019531 13.980469 14.566406 C 14 15.113281 14.460938 15.539062 15.007812 15.519531 C 15.554688 15.5 15.980469 15.042969 15.960938 14.492188 C 15.941406 13.945312 15.480469 13.519531 14.933594 13.539062 Z M 14.933594 13.539062 " fill-opacity="1" fill-rule="nonzero"/></g></svg>