<svg xmlns="http://www.w3.org/2000/svg" xmlns:xlink="http://www.w3.org/1999/xlink" width="40" zoomAndPan="magnify" viewBox="0 0 30 30.000001" height="40" preserveAspectRatio="xMidYMid meet" version="1.0"><defs><clipPath id="cfcb1824af"><path d="M 9 7 L 20 7 L 20 18 L 9 18 Z M 9 7 " clip-rule="nonzero"/></clipPath><clipPath id="3060a4c988"><path d="M 16.238281 5.664062 L 21.011719 14.636719 L 12.042969 19.410156 L 7.269531 10.441406 Z M 16.238281 5.664062 " clip-rule="nonzero"/></clipPath><clipPath id="aebd4a8f7e"><path d="M 16.238281 5.664062 L 21.011719 14.636719 L 12.042969 19.410156 L 7.269531 10.441406 Z M 16.238281 5.664062 " clip-rule="nonzero"/></clipPath><clipPath id="bdd095599e"><path d="M 6 16 L 14 16 L 14 24 L 6 24 Z M 6 16 " clip-rule="nonzero"/></clipPath><clipPath id="1bc7a22aff"><path d="M 8.847656 14.769531 L 15.007812 20.929688 L 11.929688 24.007812 L 5.769531 17.847656 Z M 8.847656 14.769531 " clip-rule="nonzero"/></clipPath><clipPath id="6a33d8b0e1"><path d="M 8.847656 14.769531 L 15.007812 20.929688 L 11.929688 24.007812 L 5.769531 17.847656 Z M 8.847656 14.769531 " clip-rule="nonzero"/></clipPath><clipPath id="27e4a730e5"><path d="M 14 15 L 25 15 L 25 23 L 14 23 Z M 14 15 " clip-rule="nonzero"/></clipPath><clipPath id="e86323bdd8"><path d="M 24.390625 19.527344 L 16.363281 22.90625 L 14.671875 18.890625 L 22.699219 15.511719 Z M 24.390625 19.527344 " clip-rule="nonzero"/></clipPath><clipPath id="752527b4d4"><path d="M 1 1 L 10.40625 1 L 10.40625 7.761719 L 1 7.761719 Z M 1 1 " clip-rule="nonzero"/></clipPath><clipPath id="1971496080"><path d="M 10.390625 4.527344 L 2.363281 7.90625 L 0.671875 3.890625 L 8.699219 0.511719 Z M 10.390625 4.527344 " clip-rule="nonzero"/></clipPath><clipPath id="17954e9c9d"><path d="M 8.785156 0.710938 L 0.757812 4.089844 L 2.445312 8.101562 L 10.472656 4.726562 Z M 8.785156 0.710938 " clip-rule="nonzero"/></clipPath><clipPath id="555584b980"><rect x="0" width="11" y="0" height="8"/></clipPath><clipPath id="87bda1bf74"><path d="M 7.167969 16 L 23 16 L 23 22.820312 L 7.167969 22.820312 Z M 7.167969 16 " clip-rule="nonzero"/></clipPath><clipPath id="73a1331649"><path d="M 10 6.125 L 20 6.125 L 20 16 L 10 16 Z M 10 6.125 " clip-rule="nonzero"/></clipPath></defs><g clip-path="url(#cfcb1824af)"><g clip-path="url(#3060a4c988)"><g clip-path="url(#aebd4a8f7e)"><path fill="#a3cf44" d="M 19.660156 13.238281 C 19.578125 14.148438 18.949219 15.011719 18.21875 15.644531 C 17.496094 16.277344 16.671875 16.683594 15.820312 16.96875 C 14.964844 17.269531 14.089844 17.453125 13.191406 17.363281 C 12.296875 17.273438 11.386719 16.917969 10.679688 16.292969 C 9.964844 15.667969 9.457031 14.792969 9.332031 13.875 C 9.210938 12.957031 9.476562 12.003906 9.828125 11.070312 C 10.175781 10.140625 10.601562 9.230469 11.304688 8.589844 C 12.007812 7.941406 12.984375 7.558594 13.976562 7.507812 C 14.972656 7.460938 15.976562 7.742188 16.785156 8.285156 C 17.589844 8.820312 18.199219 9.617188 18.734375 10.496094 C 19.273438 11.371094 19.738281 12.328125 19.660156 13.238281 Z M 19.660156 13.238281 " fill-opacity="1" fill-rule="nonzero"/></g></g></g><g clip-path="url(#bdd095599e)"><g clip-path="url(#1bc7a22aff)"><g clip-path="url(#6a33d8b0e1)"><path fill="#a3cf44" d="M 12.925781 22.96875 C 12.0625 23.835938 10.609375 22.117188 9.679688 19.855469 C 8.210938 16.269531 6.632812 17.042969 6.601562 17.027344 C 6.597656 17.027344 6.667969 16.984375 6.832031 16.847656 C 7.769531 16.0625 10.015625 15.9375 11.679688 17.601562 C 13.34375 19.265625 14.289062 21.605469 12.925781 22.96875 Z M 12.925781 22.96875 " fill-opacity="1" fill-rule="nonzero"/></g></g></g><g clip-path="url(#27e4a730e5)"><g clip-path="url(#e86323bdd8)"><g transform="matrix(1, 0, 0, 1, 14, 15)"><g clip-path="url(#555584b980)"><g clip-path="url(#752527b4d4)"><g clip-path="url(#1971496080)"><g clip-path="url(#17954e9c9d)"><path fill="#a3cf44" d="M 1.910156 6.765625 C 2.386719 7.894531 4.378906 6.851562 6.09375 5.105469 C 8.808594 2.339844 9.976562 3.65625 10.011719 3.652344 C 10.015625 3.652344 9.96875 3.585938 9.867188 3.398438 C 9.296875 2.316406 7.261719 1.351562 5.089844 2.265625 C 2.921875 3.179688 1.164062 4.988281 1.910156 6.765625 Z M 1.910156 6.765625 " fill-opacity="1" fill-rule="nonzero"/></g></g></g></g></g></g></g><g clip-path="url(#87bda1bf74)"><path fill="#52554f" d="M 22.597656 19.058594 C 22.546875 19.046875 21.539062 18.859375 20.304688 19.132812 C 21.179688 18.355469 22.078125 17.992188 22.089844 17.988281 C 22.203125 17.941406 22.273438 17.828125 22.265625 17.707031 C 22.257812 17.582031 22.167969 17.480469 22.046875 17.453125 C 22.003906 17.441406 17.71875 16.53125 15.277344 19.527344 L 15.277344 16.46875 C 15.277344 16.316406 15.152344 16.191406 14.996094 16.191406 C 14.84375 16.191406 14.71875 16.316406 14.71875 16.46875 L 14.71875 19.554688 C 14.226562 19.019531 13.617188 18.574219 12.882812 18.214844 C 12.742188 18.148438 12.578125 18.207031 12.507812 18.34375 C 12.441406 18.484375 12.5 18.648438 12.636719 18.71875 C 14.203125 19.476562 15.164062 20.695312 15.5 22.339844 L 12.46875 22.339844 C 12.304688 20.203125 10.316406 18.652344 9.085938 17.882812 C 9.746094 17.917969 10.644531 18.023438 11.554688 18.300781 C 11.703125 18.347656 11.859375 18.261719 11.90625 18.117188 C 11.949219 17.96875 11.867188 17.8125 11.722656 17.765625 C 9.828125 17.1875 8.054688 17.324219 7.984375 17.328125 C 7.859375 17.339844 7.753906 17.433594 7.730469 17.558594 C 7.710938 17.683594 7.773438 17.804688 7.886719 17.859375 C 7.90625 17.867188 8.929688 18.355469 9.941406 19.195312 C 8.59375 18.835938 7.457031 19.046875 7.394531 19.0625 C 7.273438 19.082031 7.183594 19.183594 7.167969 19.304688 C 7.15625 19.425781 7.222656 19.542969 7.335938 19.59375 C 9.6875 20.617188 10.246094 22.671875 10.25 22.691406 C 10.28125 22.816406 10.394531 22.902344 10.523438 22.902344 L 19.46875 22.902344 C 19.597656 22.902344 19.707031 22.816406 19.738281 22.691406 C 19.742188 22.671875 20.292969 20.621094 22.652344 19.59375 C 22.765625 19.546875 22.832031 19.425781 22.820312 19.304688 C 22.804688 19.183594 22.714844 19.082031 22.59375 19.0625 Z M 10.726562 22.339844 C 10.546875 21.832031 9.960938 20.515625 8.449219 19.546875 C 9.121094 19.5625 10.0625 19.699219 10.953125 20.207031 C 11.457031 20.824219 11.835938 21.542969 11.90625 22.339844 Z M 18.082031 22.339844 L 16.070312 22.339844 C 15.9375 21.617188 15.691406 20.96875 15.347656 20.390625 C 16.894531 17.96875 19.652344 17.796875 21.054688 17.894531 C 20.492188 18.230469 19.742188 18.777344 19.132812 19.566406 C 18.488281 20.402344 18.136719 21.335938 18.082031 22.339844 Z M 19.265625 22.339844 L 18.640625 22.339844 C 18.695312 21.480469 18.996094 20.683594 19.535156 19.964844 C 20.265625 19.652344 20.992188 19.5625 21.542969 19.546875 C 20.035156 20.511719 19.445312 21.832031 19.261719 22.339844 Z M 19.265625 22.339844 " fill-opacity="1" fill-rule="nonzero"/></g><g clip-path="url(#73a1331649)"><path fill="#52554f" d="M 11.273438 12.425781 C 11.023438 13.039062 11.152344 13.753906 11.636719 14.238281 C 11.960938 14.5625 12.390625 14.730469 12.824219 14.730469 C 13.035156 14.730469 13.25 14.6875 13.453125 14.601562 C 13.707031 15.207031 14.304688 15.632812 14.996094 15.632812 C 15.691406 15.632812 16.289062 15.207031 16.542969 14.601562 C 16.746094 14.6875 16.960938 14.730469 17.171875 14.730469 C 17.601562 14.730469 18.03125 14.5625 18.355469 14.238281 C 18.84375 13.75 18.972656 13.035156 18.722656 12.421875 C 19.324219 12.167969 19.75 11.570312 19.75 10.875 C 19.75 10.183594 19.324219 9.585938 18.722656 9.332031 C 18.972656 8.71875 18.84375 8.003906 18.355469 7.519531 C 17.871094 7.03125 17.15625 6.902344 16.542969 7.152344 C 16.289062 6.550781 15.691406 6.125 14.996094 6.125 C 14.304688 6.125 13.707031 6.550781 13.453125 7.152344 C 12.839844 6.902344 12.125 7.03125 11.640625 7.515625 C 11.152344 8.003906 11.023438 8.71875 11.273438 9.332031 C 10.667969 9.585938 10.246094 10.183594 10.246094 10.875 C 10.246094 11.570312 10.667969 12.167969 11.273438 12.421875 Z M 13.320312 13.953125 C 13.320312 13.984375 13.324219 14.019531 13.324219 14.050781 C 12.902344 14.265625 12.378906 14.195312 12.035156 13.84375 C 11.683594 13.496094 11.609375 12.972656 11.828125 12.550781 C 11.859375 12.550781 11.890625 12.554688 11.925781 12.554688 C 12.378906 12.554688 13.15625 12.359375 13.777344 12.023438 C 13.804688 12.050781 13.828125 12.078125 13.855469 12.101562 C 13.519531 12.722656 13.324219 13.5 13.324219 13.953125 Z M 19.191406 10.878906 C 19.191406 11.496094 18.691406 11.996094 18.070312 11.996094 C 17.707031 11.996094 17.046875 11.824219 16.527344 11.558594 C 16.621094 11.351562 16.675781 11.121094 16.675781 10.878906 C 16.675781 10.636719 16.621094 10.410156 16.527344 10.199219 C 17.046875 9.929688 17.703125 9.761719 18.070312 9.761719 C 18.691406 9.761719 19.191406 10.261719 19.191406 10.878906 Z M 16.675781 7.804688 C 16.675781 7.773438 16.671875 7.738281 16.667969 7.710938 C 17.089844 7.492188 17.613281 7.5625 17.960938 7.914062 C 18.308594 8.261719 18.386719 8.785156 18.164062 9.207031 C 18.132812 9.207031 18.101562 9.203125 18.070312 9.203125 C 17.613281 9.203125 16.835938 9.398438 16.214844 9.734375 C 16.191406 9.707031 16.164062 9.679688 16.140625 9.65625 C 16.476562 9.035156 16.671875 8.257812 16.671875 7.804688 Z M 16.21875 12.023438 C 16.839844 12.359375 17.617188 12.554688 18.070312 12.554688 C 18.101562 12.554688 18.136719 12.554688 18.167969 12.550781 C 18.386719 12.972656 18.3125 13.496094 17.960938 13.84375 C 17.613281 14.191406 17.09375 14.265625 16.667969 14.046875 C 16.667969 14.015625 16.675781 13.984375 16.675781 13.953125 C 16.675781 13.703125 16.617188 13.378906 16.519531 13.035156 C 16.480469 12.886719 16.320312 12.800781 16.175781 12.84375 C 16.027344 12.886719 15.9375 13.042969 15.984375 13.191406 C 16.066406 13.480469 16.117188 13.757812 16.117188 13.953125 C 16.117188 14.570312 15.613281 15.070312 14.996094 15.070312 C 14.378906 15.070312 13.878906 14.570312 13.878906 13.953125 C 13.878906 13.585938 14.050781 12.925781 14.316406 12.410156 C 14.523438 12.5 14.753906 12.554688 14.996094 12.554688 C 15.476562 12.554688 15.914062 12.347656 16.21875 12.023438 Z M 13.878906 10.878906 C 13.878906 10.261719 14.378906 9.761719 14.996094 9.761719 C 15.613281 9.761719 16.117188 10.261719 16.117188 10.878906 C 16.117188 11.496094 15.613281 11.996094 14.996094 11.996094 C 14.378906 11.996094 13.878906 11.496094 13.878906 10.878906 Z M 12.035156 7.914062 C 12.378906 7.566406 12.902344 7.492188 13.324219 7.710938 C 13.324219 7.742188 13.320312 7.773438 13.320312 7.808594 C 13.320312 8.054688 13.375 8.378906 13.472656 8.722656 C 13.515625 8.871094 13.671875 8.957031 13.820312 8.914062 C 13.96875 8.871094 14.054688 8.714844 14.011719 8.566406 C 13.925781 8.277344 13.878906 8 13.878906 7.808594 C 13.878906 7.1875 14.378906 6.6875 14.996094 6.6875 C 15.613281 6.6875 16.117188 7.1875 16.117188 7.808594 C 16.117188 8.171875 15.941406 8.832031 15.675781 9.351562 C 15.46875 9.257812 15.242188 9.203125 14.996094 9.203125 C 14.515625 9.203125 14.082031 9.410156 13.777344 9.734375 C 13.15625 9.398438 12.378906 9.203125 11.921875 9.203125 C 11.890625 9.203125 11.859375 9.207031 11.828125 9.210938 C 11.609375 8.789062 11.683594 8.265625 12.035156 7.917969 Z M 11.921875 9.761719 C 12.289062 9.761719 12.949219 9.933594 13.464844 10.199219 C 13.371094 10.40625 13.320312 10.636719 13.320312 10.878906 C 13.320312 11.121094 13.371094 11.347656 13.464844 11.558594 C 12.949219 11.828125 12.292969 11.996094 11.921875 11.996094 C 11.304688 11.996094 10.804688 11.496094 10.804688 10.878906 C 10.804688 10.261719 11.304688 9.761719 11.921875 9.761719 Z M 11.921875 9.761719 " fill-opacity="1" fill-rule="nonzero"/></g></svg>