<svg xmlns="http://www.w3.org/2000/svg" xmlns:xlink="http://www.w3.org/1999/xlink" width="40" zoomAndPan="magnify" viewBox="0 0 30 30.000001" height="40" preserveAspectRatio="xMidYMid meet" version="1.0"><defs><clipPath id="6e21fa34bb"><path d="M 8.203125 6.785156 L 14.007812 6.785156 L 14.007812 12.59375 L 8.203125 12.59375 Z M 8.203125 6.785156 " clip-rule="nonzero"/></clipPath><clipPath id="588be2f20c"><path d="M 14 6 L 24 6 L 24 16 L 14 16 Z M 14 6 " clip-rule="nonzero"/></clipPath><clipPath id="2cebff2271"><path d="M 18 5.121094 L 24.78125 10.582031 L 19.320312 17.367188 L 12.535156 11.902344 Z M 18 5.121094 " clip-rule="nonzero"/></clipPath><clipPath id="bf36428c40"><path d="M 18 5.121094 L 24.78125 10.582031 L 19.320312 17.367188 L 12.535156 11.902344 Z M 18 5.121094 " clip-rule="nonzero"/></clipPath><clipPath id="a01a104fdf"><path d="M 7 13 L 16 13 L 16 23 L 7 23 Z M 7 13 " clip-rule="nonzero"/></clipPath><clipPath id="8498f6b761"><path d="M 17.308594 17.042969 L 11.742188 23.742188 L 5.042969 18.179688 L 10.609375 11.480469 Z M 17.308594 17.042969 " clip-rule="nonzero"/></clipPath><clipPath id="07bfd006a0"><path d="M 17.308594 17.042969 L 11.742188 23.742188 L 5.042969 18.179688 L 10.609375 11.480469 Z M 17.308594 17.042969 " clip-rule="nonzero"/></clipPath><clipPath id="4966523ceb"><path d="M 16 15 L 22 15 L 22 22 L 16 22 Z M 16 15 " clip-rule="nonzero"/></clipPath><clipPath id="8a79861465"><path d="M 22.238281 20.34375 L 17.285156 21.46875 L 16.160156 16.515625 L 21.113281 15.386719 Z M 22.238281 20.34375 " clip-rule="nonzero"/></clipPath><clipPath id="1dc4fb1251"><path d="M 22.238281 20.34375 L 17.285156 21.46875 L 16.160156 16.515625 L 21.113281 15.386719 Z M 22.238281 20.34375 " clip-rule="nonzero"/></clipPath><clipPath id="cb4a629000"><path d="M 14 6.785156 L 22.511719 6.785156 L 22.511719 15 L 14 15 Z M 14 6.785156 " clip-rule="nonzero"/></clipPath><clipPath id="132e140883"><path d="M 7.269531 14 L 16 14 L 16 22.027344 L 7.269531 22.027344 Z M 7.269531 14 " clip-rule="nonzero"/></clipPath><clipPath id="8de249af01"><path d="M 16 6.785156 L 22.511719 6.785156 L 22.511719 14 L 16 14 Z M 16 6.785156 " clip-rule="nonzero"/></clipPath><clipPath id="fc4d3d60ea"><path d="M 18 15 L 22.511719 15 L 22.511719 19 L 18 19 Z M 18 15 " clip-rule="nonzero"/></clipPath><clipPath id="d330870846"><path d="M 8 15 L 16 15 L 16 22.027344 L 8 22.027344 Z M 8 15 " clip-rule="nonzero"/></clipPath></defs><g clip-path="url(#6e21fa34bb)"><path fill="#fd9953" d="M 13.109375 7.105469 C 13.5625 7.402344 13.835938 7.96875 13.964844 8.527344 C 14.09375 9.078125 14.078125 9.621094 13.992188 10.148438 C 13.910156 10.675781 13.761719 11.1875 13.464844 11.628906 C 13.167969 12.070312 12.730469 12.445312 12.210938 12.644531 C 11.683594 12.84375 11.085938 12.863281 10.570312 12.675781 C 10.058594 12.484375 9.632812 12.078125 9.246094 11.636719 C 8.855469 11.195312 8.5 10.722656 8.359375 10.175781 C 8.214844 9.628906 8.289062 9.011719 8.539062 8.480469 C 8.789062 7.945312 9.214844 7.5 9.722656 7.230469 C 10.226562 6.957031 10.8125 6.859375 11.417969 6.824219 C 12.027344 6.785156 12.65625 6.8125 13.109375 7.105469 Z M 13.109375 7.105469 " fill-opacity="1" fill-rule="nonzero"/></g><g clip-path="url(#588be2f20c)"><g clip-path="url(#2cebff2271)"><g clip-path="url(#bf36428c40)"><path fill="#fd9953" d="M 23.121094 9.820312 C 23.355469 10.546875 23.15625 11.417969 22.804688 12.144531 C 22.453125 12.867188 21.953125 13.449219 21.394531 13.953125 C 20.832031 14.460938 20.21875 14.894531 19.5 15.121094 C 18.78125 15.34375 17.964844 15.367188 17.214844 15.121094 C 16.460938 14.878906 15.78125 14.371094 15.382812 13.703125 C 14.988281 13.039062 14.878906 12.21875 14.84375 11.386719 C 14.804688 10.554688 14.832031 9.714844 15.164062 8.992188 C 15.488281 8.261719 16.117188 7.644531 16.863281 7.28125 C 17.613281 6.914062 18.480469 6.804688 19.277344 6.953125 C 20.074219 7.101562 20.804688 7.515625 21.503906 8.015625 C 22.210938 8.507812 22.878906 9.09375 23.121094 9.820312 Z M 23.121094 9.820312 " fill-opacity="1" fill-rule="nonzero"/></g></g></g><g clip-path="url(#a01a104fdf)"><g clip-path="url(#8498f6b761)"><g clip-path="url(#07bfd006a0)"><path fill="#fd9953" d="M 12.53125 22.09375 C 11.796875 22.316406 10.929688 22.105469 10.207031 21.738281 C 9.492188 21.378906 8.917969 20.871094 8.421875 20.300781 C 7.921875 19.734375 7.5 19.113281 7.285156 18.390625 C 7.070312 17.667969 7.058594 16.851562 7.316406 16.105469 C 7.574219 15.355469 8.09375 14.683594 8.765625 14.296875 C 9.433594 13.914062 10.257812 13.816406 11.089844 13.792969 C 11.921875 13.765625 12.761719 13.808594 13.480469 14.148438 C 14.203125 14.488281 14.8125 15.125 15.164062 15.875 C 15.519531 16.628906 15.617188 17.5 15.453125 18.296875 C 15.292969 19.089844 14.867188 19.8125 14.359375 20.507812 C 13.851562 21.203125 13.257812 21.863281 12.53125 22.09375 Z M 12.53125 22.09375 " fill-opacity="1" fill-rule="nonzero"/></g></g></g><g clip-path="url(#4966523ceb)"><g clip-path="url(#8a79861465)"><g clip-path="url(#1dc4fb1251)"><path fill="#fd9953" d="M 18.136719 21 C 17.707031 20.839844 17.375 20.425781 17.164062 19.988281 C 16.953125 19.558594 16.867188 19.105469 16.839844 18.65625 C 16.808594 18.207031 16.832031 17.757812 16.996094 17.335938 C 17.15625 16.917969 17.449219 16.527344 17.839844 16.265625 C 18.234375 16.003906 18.726562 15.875 19.1875 15.933594 C 19.644531 15.996094 20.070312 16.25 20.472656 16.539062 C 20.875 16.828125 21.257812 17.15625 21.476562 17.578125 C 21.695312 18.003906 21.753906 18.523438 21.648438 19.011719 C 21.539062 19.496094 21.269531 19.945312 20.902344 20.261719 C 20.539062 20.582031 20.074219 20.769531 19.582031 20.914062 C 19.089844 21.058594 18.566406 21.15625 18.136719 21 Z M 18.136719 21 " fill-opacity="1" fill-rule="nonzero"/></g></g></g><g clip-path="url(#cb4a629000)"><path fill="#52554f" d="M 15.4375 14.785156 C 15.183594 14.785156 15.027344 14.777344 14.992188 14.777344 C 14.855469 14.769531 14.746094 14.660156 14.738281 14.519531 C 14.730469 14.390625 14.613281 11.375 15.566406 9.277344 C 15.628906 9.140625 15.785156 9.082031 15.917969 9.140625 C 16.050781 9.203125 16.113281 9.359375 16.050781 9.492188 C 15.304688 11.144531 15.257812 13.484375 15.265625 14.246094 C 16.222656 14.253906 19.664062 14.179688 21.09375 12.75 C 22.289062 11.554688 22.289062 9.609375 21.09375 8.414062 C 19.898438 7.222656 17.957031 7.222656 16.761719 8.414062 C 16.691406 8.488281 16.625 8.5625 16.570312 8.632812 C 16.476562 8.75 16.308594 8.769531 16.195312 8.679688 C 16.078125 8.585938 16.058594 8.421875 16.148438 8.304688 C 16.21875 8.21875 16.300781 8.125 16.386719 8.039062 C 17.789062 6.636719 20.070312 6.636719 21.472656 8.039062 C 22.875 9.441406 22.875 11.722656 21.472656 13.125 C 19.960938 14.636719 16.644531 14.777344 15.4375 14.777344 Z M 15.4375 14.785156 " fill-opacity="1" fill-rule="nonzero"/></g><path fill="#52554f" d="M 17.207031 20.910156 C 17.164062 20.910156 17.136719 20.910156 17.125 20.910156 C 16.980469 20.910156 16.867188 20.792969 16.863281 20.648438 C 16.863281 20.539062 16.820312 17.890625 17.945312 16.769531 C 18.824219 15.890625 20.226562 15.859375 21.070312 16.707031 C 21.914062 17.550781 21.886719 18.953125 21.007812 19.832031 C 19.980469 20.859375 17.679688 20.910156 17.207031 20.910156 Z M 18.320312 17.144531 C 17.542969 17.921875 17.421875 19.703125 17.402344 20.375 C 18.078125 20.355469 19.855469 20.230469 20.632812 19.457031 C 21.304688 18.785156 21.332031 17.71875 20.695312 17.085938 C 20.058594 16.445312 18.996094 16.476562 18.324219 17.148438 Z M 18.320312 17.144531 " fill-opacity="1" fill-rule="nonzero"/><path fill="#52554f" d="M 11.234375 12.671875 C 10.679688 12.671875 10.140625 12.46875 9.726562 12.058594 C 8.882812 11.214844 8.910156 9.8125 9.792969 8.933594 C 10.914062 7.808594 13.558594 7.851562 13.671875 7.851562 C 13.816406 7.855469 13.929688 7.96875 13.933594 8.113281 C 13.933594 8.226562 13.976562 10.871094 12.851562 11.992188 C 12.402344 12.445312 11.8125 12.671875 11.230469 12.671875 Z M 13.398438 8.386719 C 12.726562 8.40625 10.945312 8.53125 10.167969 9.308594 C 9.5 9.980469 9.46875 11.046875 10.105469 11.679688 C 10.742188 12.316406 11.804688 12.285156 12.476562 11.617188 C 13.257812 10.835938 13.378906 9.058594 13.398438 8.386719 Z M 12.667969 11.808594 Z M 12.667969 11.808594 " fill-opacity="1" fill-rule="nonzero"/><g clip-path="url(#132e140883)"><path fill="#52554f" d="M 11.46875 22.039062 C 10.546875 22.039062 9.625 21.6875 8.925781 20.984375 C 7.097656 19.160156 7.269531 14.695312 7.277344 14.507812 C 7.285156 14.367188 7.394531 14.257812 7.535156 14.25 C 7.722656 14.242188 12.1875 14.074219 14.011719 15.898438 C 14.230469 16.117188 14.421875 16.363281 14.582031 16.636719 C 14.65625 16.765625 14.613281 16.925781 14.484375 17 C 14.355469 17.074219 14.195312 17.035156 14.121094 16.90625 C 13.980469 16.667969 13.820312 16.464844 13.632812 16.273438 C 12.207031 14.84375 8.761719 14.773438 7.804688 14.777344 C 7.796875 15.734375 7.871094 19.175781 9.304688 20.605469 C 10.496094 21.796875 12.441406 21.796875 13.632812 20.605469 C 14.363281 19.875 14.675781 18.835938 14.46875 17.824219 C 14.4375 17.679688 14.53125 17.539062 14.675781 17.511719 C 14.820312 17.480469 14.960938 17.574219 14.992188 17.71875 C 15.234375 18.90625 14.871094 20.125 14.011719 20.984375 C 13.3125 21.683594 12.390625 22.035156 11.46875 22.035156 Z M 11.46875 22.039062 " fill-opacity="1" fill-rule="nonzero"/></g><g clip-path="url(#8de249af01)"><path fill="#52554f" d="M 22.648438 6.863281 C 22.546875 6.757812 22.378906 6.757812 22.273438 6.863281 L 20.195312 8.945312 L 17.558594 8.945312 C 17.414062 8.945312 17.292969 9.066406 17.292969 9.210938 C 17.292969 9.359375 17.414062 9.476562 17.558594 9.476562 L 19.664062 9.476562 L 18.234375 10.90625 L 16.777344 10.90625 C 16.628906 10.90625 16.511719 11.027344 16.511719 11.171875 C 16.511719 11.320312 16.628906 11.441406 16.777344 11.441406 L 17.703125 11.441406 L 16.390625 12.75 C 16.285156 12.855469 16.285156 13.023438 16.390625 13.125 C 16.441406 13.179688 16.511719 13.203125 16.578125 13.203125 C 16.648438 13.203125 16.714844 13.175781 16.769531 13.125 L 18.078125 11.816406 L 18.078125 12.742188 C 18.078125 12.890625 18.199219 13.007812 18.347656 13.007812 C 18.492188 13.007812 18.613281 12.890625 18.613281 12.742188 L 18.613281 11.28125 L 20.042969 9.855469 L 20.042969 11.957031 C 20.042969 12.101562 20.160156 12.222656 20.308594 12.222656 C 20.453125 12.222656 20.574219 12.101562 20.574219 11.957031 L 20.574219 9.320312 L 22.652344 7.238281 C 22.757812 7.136719 22.757812 6.96875 22.652344 6.863281 Z M 22.648438 6.863281 " fill-opacity="1" fill-rule="nonzero"/></g><g clip-path="url(#fc4d3d60ea)"><path fill="#52554f" d="M 21.738281 15.660156 L 18.859375 18.535156 C 18.757812 18.640625 18.757812 18.808594 18.859375 18.914062 C 18.914062 18.964844 18.980469 18.988281 19.050781 18.988281 C 19.117188 18.988281 19.1875 18.964844 19.238281 18.914062 L 22.117188 16.035156 C 22.222656 15.929688 22.222656 15.761719 22.117188 15.660156 C 22.011719 15.554688 21.84375 15.554688 21.742188 15.660156 Z M 21.738281 15.660156 " fill-opacity="1" fill-rule="nonzero"/></g><path fill="#52554f" d="M 9.058594 13.105469 L 11.9375 10.226562 C 12.039062 10.121094 12.039062 9.953125 11.9375 9.851562 C 11.832031 9.746094 11.664062 9.746094 11.5625 9.851562 L 8.683594 12.730469 C 8.578125 12.832031 8.578125 13 8.683594 13.105469 C 8.734375 13.160156 8.800781 13.183594 8.871094 13.183594 C 8.941406 13.183594 9.007812 13.15625 9.0625 13.105469 Z M 9.058594 13.105469 " fill-opacity="1" fill-rule="nonzero"/><g clip-path="url(#d330870846)"><path fill="#52554f" d="M 13.109375 19.710938 L 13.109375 17.074219 C 13.109375 16.925781 12.988281 16.808594 12.84375 16.808594 C 12.695312 16.808594 12.578125 16.925781 12.578125 17.074219 L 12.578125 19.175781 L 11.148438 17.746094 L 11.148438 16.289062 C 11.148438 16.140625 11.027344 16.019531 10.882812 16.019531 C 10.734375 16.019531 10.613281 16.140625 10.613281 16.289062 L 10.613281 17.214844 L 9.304688 15.902344 C 9.199219 15.800781 9.03125 15.800781 8.929688 15.902344 C 8.824219 16.007812 8.824219 16.175781 8.929688 16.277344 L 10.238281 17.589844 L 9.3125 17.589844 C 9.167969 17.589844 9.046875 17.710938 9.046875 17.855469 C 9.046875 18.003906 9.167969 18.125 9.3125 18.125 L 10.773438 18.125 L 12.199219 19.550781 L 10.097656 19.550781 C 9.953125 19.550781 9.832031 19.671875 9.832031 19.820312 C 9.832031 19.964844 9.953125 20.085938 10.097656 20.085938 L 12.734375 20.085938 L 14.8125 22.167969 C 14.867188 22.21875 14.933594 22.242188 15 22.242188 C 15.070312 22.242188 15.136719 22.21875 15.191406 22.167969 C 15.292969 22.0625 15.292969 21.894531 15.191406 21.789062 L 13.113281 19.710938 Z M 13.109375 19.710938 " fill-opacity="1" fill-rule="nonzero"/></g></svg>