<?xml version="1.0" encoding="windows-1252"?>
<!-- Uploaded to: SVG Repo, www.svgrepo.com, Generator: SVG Repo Mixer Tools -->
<!DOCTYPE svg PUBLIC "-//W3C//DTD SVG 1.1//EN" "http://www.w3.org/Graphics/SVG/1.1/DTD/svg11.dtd">
<svg fill="rgb(246, 246, 246)" version="1.1" id="Capa_1" xmlns="http://www.w3.org/2000/svg" xmlns:xlink="http://www.w3.org/1999/xlink" width="800px" height="800px" viewBox="0 0 108.284 108.284" xml:space="preserve">
<g>
	<g id="layer1">
		<path id="path1871" d="M54.142,16.242c5.643,4.923,12.334,10.633,21.135,10.829c8.693,0.194,12.183-2.919,18.015-5.415    c0,0-5.708,13.61-6.665,21.241c-0.218,1.819-0.48,5.824,0,9.579c0.321,4.506,5.041,28.854,21.657,39.566H0    c14.074-12.544,22.677-28.28,22.49-49.145h16.659c1.14,9.884,0.572,24.078,6.665,27.488c5.863,3.284,8.504-5.634,8.329-8.746    h7.498c-0.399,4.443,2.51,8.887,6.664,8.746c4.576-0.154,7.485-11.076,7.496-17.909c0.01-6.684-1.671-8.697-5.259-9.056    c-3.724-0.373-11.929,4.626-16.399,9.056L54.142,16.242L54.142,16.242z"/>
	</g>
</g>
</svg>